The.Hitchhikers.Guide.to.the.Galaxy.2005.BDRip.480p.DivX.AC3-Atilla82




The Hitchhiker's Guide to the Galaxy (2005)

Adventure | Comedy | Sci-Fi
 
http://www.imdb.com/title/tt0371724/


Mere seconds before the Earth is to be demolished by an alien construction crew,
journeyman Arthur Dent is swept off the planet by his friend Ford Prefect, 
a researcher penning a new edition of "The Hitchhiker's Guide to the Galaxy."





subtitles: English, Croatian (.srt)



General
Complete name : The.Hitchhikers.Guide.to.the.Galaxy.2005.BDRip.480p.DivX.AC3-Atilla82.avi
Format : AVI
Format/Info : Audio Video Interleave
File size : 1.28 GiB
Duration : 1h 48mn
Overall bit rate : 1 680 Kbps
Writing application : VirtualDubMod 1.5.10.2 (build 2540/release)
Writing library : VirtualDubMod build 2540/release

Video
ID : 0
Format : MPEG-4 Visual
Format settings, BVOP : 1
Format settings, QPel : No
Format settings, GMC : No warppoints
Format settings, Matrix : Default (H.263)
Muxing mode : Packed bitstream
Codec ID : DX50
Codec ID/Hint : DivX 5
Duration : 1h 48mn
Bit rate : 1 223 Kbps
Width : 720 pixels
Height : 300 pixels
Display aspect ratio : 2.40:1
Frame rate : 23.976 fps
Color space : YUV
Chroma subsampling : 4:2:0
Bit depth : 8 bits
Scan type : Progressive
Compression mode : Lossy
Bits/(Pixel*Frame) : 0.236
Stream size : 951 MiB (73%)
Writing library : DivX 3330

Audio
ID : 1
Format : AC-3
Format/Info : Audio Coding 3
Mode extension : CM (complete main)
Format settings, Endianness : Big
Codec ID : 2000
Duration : 1h 48mn
Bit rate mode : Constant
Bit rate : 448 Kbps
Channel(s) : 6 channels
Channel positions : Front: L C R, Side: L R, LFE
Sampling rate : 48.0 KHz
Bit depth : 16 bits
Compression mode : Lossy
Stream size : 349 MiB (27%)
Alignment : Split accross interleaves
Interleave, duration : 42 ms (1.00 video frame)
Interleave, preload duration : 500 ms


screenshots 
http://www.pohrani.com/f/8/dj/3DcoySnx/screenshots.jpg




